<svg id="sector_scheme" data-version="2" xmlns="http://www.w3.org/2000/svg" width="968.76" height="840.55"
  viewBox="0 0 968.76 840.55">
  <defs>
    <style>
      #sector_scheme .cls-1 {
        fill: #0090ec !important;
      }

      #sector_scheme .cls-2 {
        isolation: isolate !important;
        font-size: 11px !important;
        font-family: Arial-BoldMT, Arial !important;
        font-weight: 700 !important;
      }

      #sector_scheme .cls-10,
      #sector_scheme .cls-11,
      #sector_scheme .cls-2 {
        fill: #fff !important;
      }

      #sector_scheme .cls-3 {
        fill: #ffc902 !important;
      }

      #sector_scheme .cls-4 {
        fill: #20ad2b !important;
      }

      #sector_scheme .cls-5 {
        fill: #df0f1c !important;
      }

      #sector_scheme .cls-6 {
        fill: #f4f4f4 !important;
      }

      #sector_scheme .cls-7 {
        fill: #e3e7ea !important;
      }

      #sector_scheme .cls-8 {
        fill: #8cc497 !important;
      }

      #sector_scheme .cls-9 {
        fill: #6fad6f !important;
      }

      #sector_scheme .cls-10 {
        fill-rule: evenodd !important;
      }

      #sector_scheme .cls-12 {
        font-size: 11px;
        fill: #8e9ca7 !important;
        font-family: ArialMT, Arial !important;
      }

      #spartak text.cls-2 {
        fill: transparent;
      }
    </style>
  </defs>
  <g id="west_tribune" data-name="west_tribune" data-id="west_tribune">
    <g>
      <path class="cls-1" d="M544.1,813.84H424.66v15.68c0,6.1,3.9,11,8.73,11h102c4.82,0,8.73-4.93,8.73-11V813.84Z" />
      <text class="cls-2" transform="translate(434.68 830.43)">Западная трибуна</text>
    </g>
  </g>
  <g id="south_tribune" data-name="south_tribune" data-id="south_tribune">
    <g>
      <path class="cls-3" d="M941.79,358.06V477.5h15.83c6.15,0,11.14-3.9,11.14-8.73v-102c0-4.82-5-8.73-11.14-8.73Z" />
      <text class="cls-2" transform="translate(960.87 460.74) rotate(-90)">Южная трибуна</text>
    </g>
  </g>
  <g id="north_tribune" data-name="north_tribune" data-id="north_tribune">
    <g>
      <path class="cls-4" d="M28.12,477.5V358.06H11.62C5.2,358.06,0,362,0,366.79v102c0,4.83,5.2,8.73,11.62,8.73Z" />
      <text class="cls-2" transform="translate(13.74 467.86) rotate(-90)">Северная трибуна</text>
    </g>
  </g>
  <g id="east_tribune" data-name="east_tribune" data-id="east_tribune">
    <g>
      <path class="cls-5" d="M424.66,26.71H544.1V11c0-6.1-3.91-11-8.73-11h-102c-4.83,0-8.73,4.94-8.73,11V26.71Z" />
      <text class="cls-2" transform="translate(431.71 13.35)">Восточная трибуна</text>
    </g>
  </g>
  <path class="cls-6"
    d="M549.29,19.93H419.47A397.95,397.95,0,0,0,264.6,784.35a395.49,395.49,0,0,0,154.87,31.28H549.29A397.95,397.95,0,0,0,704.16,51.21,395.49,395.49,0,0,0,549.29,19.93Z" />
  <path class="cls-7"
    d="M817.25,149.83a377.76,377.76,0,0,0-268-111H419.45A379,379,0,0,0,272,766.93a376.67,376.67,0,0,0,147.5,29.78H549.3a378.83,378.83,0,0,0,268-646.88Z" />
  <g id="field" data-name="field" data-id="field">
    <rect class="cls-6" x="300.53" y="296.25" width="370.69" height="242.2" rx="14.17" />
    <rect class="cls-8" x="311.29" y="307.8" width="349.16" height="219.11" rx="6.69" />
    <rect class="cls-9" x="325.59" y="307.8" width="20.31" height="219.11" />
    <rect class="cls-9" x="368.5" y="307.8" width="20.31" height="219.11" />
    <rect class="cls-9" x="411.39" y="307.8" width="20.31" height="219.11" />
    <rect class="cls-9" x="454.27" y="307.8" width="20.31" height="219.11" />
    <rect class="cls-9" x="497.17" y="307.8" width="20.31" height="219.11" />
    <rect class="cls-9" x="540.06" y="307.8" width="20.31" height="219.11" />
    <rect class="cls-9" x="582.95" y="307.8" width="20.31" height="219.11" />
    <rect class="cls-9" x="625.85" y="307.8" width="20.31" height="219.11" />
    <path class="cls-10"
      d="M652.59,314.08H319.8a3.06,3.06,0,0,0-3.06,3V517.57a3,3,0,0,0,3,3H652.56a3,3,0,0,0,3.05-3V317.14A3,3,0,0,0,652.59,314.08Zm-332.79-1a4.08,4.08,0,0,0-4.08,4.08h0V517.57a4.08,4.08,0,0,0,4.08,4.08H652.56a4.08,4.08,0,0,0,4.08-4.08V317.14a4.08,4.08,0,0,0-4.08-4.08Z" />
    <path class="cls-10"
      d="M348.85,376.54H316.76v81.63h32.09a1,1,0,0,0,1-1V377.56A1,1,0,0,0,348.85,376.54Zm-33.14-1v83.59h33.14a2,2,0,0,0,2-2V377.56a2,2,0,0,0-2-2Z" />
    <path class="cls-10"
      d="M326.32,398.23h-9.56v38.25h9.55a1,1,0,0,0,1-.92v-.1h0V399.25a1,1,0,0,0-.91-1h-.1Zm-10.52-1v40.35h10.57a2.06,2.06,0,0,0,2-2.05V399.25a2,2,0,0,0-2-2Z" />
    <path class="cls-10"
      d="M356.87,417.35a21.82,21.82,0,0,0-6.71-15.74l.7-.73a22.83,22.83,0,0,1,.68,32.27l0,0a8,8,0,0,1-.65.65l-.7-.73A21.8,21.8,0,0,0,356.87,417.35Z" />
    <path class="cls-10"
      d="M623.56,376.54h32v81.63h-32a1,1,0,0,1-1-1V377.56A1,1,0,0,1,623.56,376.54Zm33.15-1v83.59H623.56a2.06,2.06,0,0,1-2-2V377.56a2.06,2.06,0,0,1,2-2Z" />
    <path class="cls-10"
      d="M646.08,398.23h9.5v38.25H646a1,1,0,0,1-1-1v-36.2a1,1,0,0,1,1-1Zm10.59-1v40.35H646.08a2,2,0,0,1-2-2.05V399.25a2,2,0,0,1,2-2Z" />
    <path class="cls-10"
      d="M615.55,417.35a21.74,21.74,0,0,1,6.67-15.74l-.71-.73a22.83,22.83,0,0,0-.65,32.29c.22.23.43.45.65.65l.71-.73A21.74,21.74,0,0,1,615.55,417.35Z" />
    <path class="cls-10"
      d="M486.2,441.68A26.27,26.27,0,1,0,460,415.41v0h0a26.24,26.24,0,0,0,26.24,26.24Zm0,1a27.29,27.29,0,1,0-27.26-27.31v0h0a27.27,27.27,0,0,0,27.25,27.27h0Z" />
    <path class="cls-10" d="M322.06,521.65a6.31,6.31,0,0,0-6.31-6.31h0v-1a7.31,7.31,0,0,1,7.33,7.3h0Z" />
    <path class="cls-10" d="M650.35,521.65a6.31,6.31,0,0,1,6.32-6.31h0v-1a7.31,7.31,0,0,0-7.34,7.28v0h0Z" />
    <path class="cls-10" d="M322.06,313.06a6.31,6.31,0,0,1-6.31,6.31h0v1a7.31,7.31,0,0,0,7.33-7.3h-1Z" />
    <path class="cls-10" d="M650.35,313.06a6.31,6.31,0,0,0,6.32,6.31h0v1a7.31,7.31,0,0,1-7.34-7.28v0h1Z" />
    <path class="cls-10" d="M485.7,521.56V313.48h1V521.56Z" />
  </g>
  <g id="k221" data-name="221" data-id="k221">
    <rect class="cls-11" x="443.23" y="54.85" width="81.52" height="128.27" rx="2.26" />
    <text class="cls-12" transform="translate(474.81 121.92)">221</text>
  </g>
  <g id="k209" data-name="209" data-id="k209">
    <rect class="cls-11" x="443.23" y="653.15" width="81.52" height="128.27" rx="2.26" />
    <text class="cls-12" transform="translate(474.81 720.22)">209</text>
  </g>
  <g id="k208" data-name="208" data-id="k208">
    <path class="cls-11"
      d="M438,653.15H376.43a2.27,2.27,0,0,0-2.24,2l-15.56,119a2.27,2.27,0,0,0,1.87,2.53,365.72,365.72,0,0,0,59.31,4.82H438a2.27,2.27,0,0,0,2.27-2.26V655.42A2.27,2.27,0,0,0,438,653.15Z" />
    <text class="cls-12" transform="translate(395.15 720.22)">208</text>
  </g>
  <g id="k220" data-name="220" data-id="k220">
    <path class="cls-11"
      d="M530,183.12h63.62a2.27,2.27,0,0,0,2.24-2L611.4,62.42a2.28,2.28,0,0,0-1.87-2.54,365.42,365.42,0,0,0-60.58-5H530a2.26,2.26,0,0,0-2.26,2.26V180.85A2.27,2.27,0,0,0,530,183.12Z" />
    <text class="cls-12" transform="translate(555.54 121.92)">220</text>
  </g>
  <g id="k222" data-name="222" data-id="k222">
    <path class="cls-11"
      d="M375.54,183.12H438a2.27,2.27,0,0,0,2.27-2.27V57.11A2.27,2.27,0,0,0,438,54.85H419.81a366.1,366.1,0,0,0-60.18,5,2.28,2.28,0,0,0-1.87,2.54l15.54,118.8A2.27,2.27,0,0,0,375.54,183.12Z" />
    <text class="cls-12" transform="translate(395.15 121.92)">222</text>
  </g>
  <g id="k122" data-name="122 Business" data-id="k122">
    <path class="cls-11"
      d="M378.64,221.94l6.3,48.14a2.26,2.26,0,0,0,2.24,2h93.44a2.27,2.27,0,0,0,2.26-2.27V221.65a2.26,2.26,0,0,0-2.26-2.26H380.88A2.26,2.26,0,0,0,378.64,221.94Z" />
    <text class="cls-12" transform="translate(421.57 241.16)">122</text>
    <text class="cls-12" transform="translate(408.9 255.9)">Business </text>
  </g>
  <g id="k120" data-name="120 Business" data-id="k120">
    <path class="cls-11"
      d="M485.88,221.65v48.13a2.27,2.27,0,0,0,2.26,2.27H582a2.27,2.27,0,0,0,2.25-2l6.29-48.14a2.25,2.25,0,0,0-2.24-2.55H488.14A2.26,2.26,0,0,0,485.88,221.65Z" />
    <text class="cls-12" transform="translate(529.03 241.16)">120</text>
    <text class="cls-12" transform="translate(516.37 255.9)">Business </text>
  </g>
  <g id="k108" data-name="108 VIP" data-id="k108">
    <path class="cls-11"
      d="M451.55,579.62V566.49a2.27,2.27,0,0,0-2.26-2.27H388.07a2.27,2.27,0,0,0-2.25,2l-6.29,48.14a2.25,2.25,0,0,0,2.24,2.55h98.85a2.26,2.26,0,0,0,2.26-2.26V584.14a2.26,2.26,0,0,0-2.26-2.26H453.81A2.26,2.26,0,0,1,451.55,579.62Z" />
    <text class="cls-12" transform="translate(409.37 602.37)">108 VIP</text>
  </g>
  <g id="k110" data-name="110 VIP" data-id="k110">
    <path class="cls-11"
      d="M581.1,564.22H519.75a2.27,2.27,0,0,0-2.27,2.27v13.13a2.26,2.26,0,0,1-2.26,2.26H488.14a2.26,2.26,0,0,0-2.26,2.26v30.48a2.26,2.26,0,0,0,2.26,2.26h99.25a2.27,2.27,0,0,0,2.25-2.55l-6.3-48.14A2.27,2.27,0,0,0,581.1,564.22Z" />
    <text class="cls-12" transform="translate(516.59 604)">110 VIP</text>
  </g>
  <g id="k210" data-name="210" data-id="k210">
    <path class="cls-11"
      d="M592.73,653.15H530a2.27,2.27,0,0,0-2.26,2.27V779.16a2.26,2.26,0,0,0,2.26,2.26h19a364.83,364.83,0,0,0,59.7-4.89,2.26,2.26,0,0,0,1.88-2.53L595,655.12A2.26,2.26,0,0,0,592.73,653.15Z" />
    <text class="cls-12" transform="translate(555.54 720.22)">210</text>
  </g>
  <g id="k219" data-name="219" data-id="k219">
    <path class="cls-11"
      d="M614.33,63.15,599,180.56a2.27,2.27,0,0,0,2.25,2.56h51.67a146.57,146.57,0,0,1,21.29,1.55,2.24,2.24,0,0,0,2.4-1.33l37.48-86.5a2.29,2.29,0,0,0-1-2.93,360.93,360.93,0,0,0-96-32.7A2.26,2.26,0,0,0,614.33,63.15Z" />
    <text class="cls-12" transform="translate(639.76 130) rotate(10.97)">219</text>
  </g>
  <g id="k223" data-name="223" data-id="k223">
    <path class="cls-11"
      d="M352.16,61.14a360.92,360.92,0,0,0-96.07,32.6,2.27,2.27,0,0,0-1,2.93l37.52,86.61a2.25,2.25,0,0,0,2.4,1.33,147.18,147.18,0,0,1,20.92-1.49H368a2.26,2.26,0,0,0,2.25-2.56L354.83,63.07A2.28,2.28,0,0,0,352.16,61.14Z" />
    <text class="cls-12" transform="translate(310.43 133.48) rotate(-10.97)">223</text>
  </g>
  <g id="k207" data-name="207" data-id="k207">
    <path class="cls-11"
      d="M355.69,773.36l15.4-117.65a2.27,2.27,0,0,0-2.25-2.56h-53A147,147,0,0,1,294,651.52a2.24,2.24,0,0,0-2.41,1.33l-37.41,86.34a2.28,2.28,0,0,0,1.05,2.92A360.91,360.91,0,0,0,353,775.3,2.27,2.27,0,0,0,355.69,773.36Z" />
    <text class="cls-12" transform="translate(309.26 709.09) rotate(10.97)">207</text>
  </g>
  <g id="k211" data-name="211" data-id="k211">
    <path class="cls-11"
      d="M616.12,775.22a360.56,360.56,0,0,0,97.7-33.28,2.28,2.28,0,0,0,1-2.92l-37.36-86.23a2.24,2.24,0,0,0-2.42-1.33,146.52,146.52,0,0,1-22.21,1.69H600.32a2.26,2.26,0,0,0-2.24,2.56l15.38,117.58A2.27,2.27,0,0,0,616.12,775.22Z" />
    <text class="cls-12" transform="translate(640.78 712.51) rotate(-10.72)">211</text>
  </g>
  <g id="k111" data-name="111" data-id="k111">
    <path class="cls-11"
      d="M637.66,564.22h-49a2.26,2.26,0,0,0-2.25,2.56l9.61,73.4a2.25,2.25,0,0,0,2.24,2h54.59a135.39,135.39,0,0,0,16.41-1,2.27,2.27,0,0,0,1.82-3.15l-31.38-72.42A2.26,2.26,0,0,0,637.66,564.22Z" />
    <text class="cls-12" transform="translate(613.44 607.96) rotate(-1.19)">111</text>
  </g>
  <g id="k107" data-name="107" data-id="k107">
    <path class="cls-11"
      d="M380.48,564.22h-49a2.26,2.26,0,0,0-2.08,1.37L298,638.06a2.26,2.26,0,0,0,1.79,3.14,135.77,135.77,0,0,0,16.06.95h55a2.27,2.27,0,0,0,2.25-2l9.6-73.4A2.26,2.26,0,0,0,380.48,564.22Z" />
    <text class="cls-12" transform="translate(336.62 607.52) rotate(1.19)">107</text>
  </g>
  <g id="k123" data-name="123" data-id="k123">
    <path class="cls-11"
      d="M332.5,272.05h47.09a2.26,2.26,0,0,0,2.24-2.56l-9.6-73.4a2.26,2.26,0,0,0-2.24-2H315.88a136.18,136.18,0,0,0-15,.83A2.27,2.27,0,0,0,299,198.1l31.44,72.58A2.26,2.26,0,0,0,332.5,272.05Z" />
    <text class="cls-12" transform="matrix(1, -0.02, 0.02, 1, 336.74, 236.16)">123</text>
  </g>
  <g id="k119" data-name="119" data-id="k119">
    <path class="cls-11"
      d="M589.57,272.05h47.09a2.25,2.25,0,0,0,2.07-1.37l31.43-72.53a2.26,2.26,0,0,0-1.8-3.15,137,137,0,0,0-15.48-.88h-53.7a2.27,2.27,0,0,0-2.25,2l-9.6,73.4A2.26,2.26,0,0,0,589.57,272.05Z" />
    <text class="cls-12" transform="translate(613.38 235.77) rotate(1.19)">119</text>
  </g>
  <g id="k218" data-name="218" data-id="k218">
    <path class="cls-11"
      d="M681.7,186a145,145,0,0,1,68,34.05,2.25,2.25,0,0,0,3.07,0l55.53-52.93a2.28,2.28,0,0,0,.06-3.23,364.3,364.3,0,0,0-88.65-66.41,2.26,2.26,0,0,0-3.14,1.1l-36.54,84.33A2.28,2.28,0,0,0,681.7,186Z" />
    <text class="cls-12" transform="translate(740.45 172.33) rotate(-53.2)">218</text>
  </g>
  <g id="k118" data-name="118" data-id="k118">
    <path class="cls-11"
      d="M642.78,268.88a2.27,2.27,0,0,0,2.08,3.17h1a54.87,54.87,0,0,1,35.68,13.12,2.25,2.25,0,0,0,3-.11l57-54.32a2.26,2.26,0,0,0,0-3.33,133.14,133.14,0,0,0-65.29-31.28,2.28,2.28,0,0,0-2.46,1.33Z" />
    <text class="cls-12" transform="translate(687.03 251.25) rotate(-53.2)">118</text>
  </g>
  <g id="k124" data-name="124" data-id="k124">
    <path class="cls-11"
      d="M326.38,268.88l-31-71.48a2.25,2.25,0,0,0-2.45-1.34,133.28,133.28,0,0,0-65.46,31.16,2.26,2.26,0,0,0-.05,3.33l57,54.33a2.26,2.26,0,0,0,3,.12,54.84,54.84,0,0,1,35.48-12.95h1.4A2.27,2.27,0,0,0,326.38,268.88Z" />
    <text class="cls-12" transform="translate(273.55 236.5) rotate(53.2)">124</text>
  </g>
  <g id="k224" data-name="224" data-id="k224">
    <path class="cls-11"
      d="M219.24,219.85a145.06,145.06,0,0,1,68.18-33.95,2.27,2.27,0,0,0,1.66-3.12L252.5,98.35a2.27,2.27,0,0,0-3.15-1.11,364.54,364.54,0,0,0-88.77,66.39,2.26,2.26,0,0,0,.06,3.23l55.54,52.95A2.26,2.26,0,0,0,219.24,219.85Z" />
    <text class="cls-12" transform="translate(217.05 157.58) rotate(53.2)">224</text>
  </g>
  <g id="k212" data-name="212" data-id="k212">
    <path class="cls-11"
      d="M749.1,616.79a145,145,0,0,1-66.5,33.31,2.27,2.27,0,0,0-1.63,3.12l36.43,84.1a2.27,2.27,0,0,0,3.15,1.1,364.49,364.49,0,0,0,87.23-65.37,2.27,2.27,0,0,0,0-3.23l-55.57-53A2.26,2.26,0,0,0,749.1,616.79Z" />
    <text class="cls-12" transform="translate(735.52 668.02) rotate(53.2)">212</text>
  </g>
  <g id="k112" data-name="112" data-id="k112">
    <path class="cls-11"
      d="M740.88,606.08l-57-54.33a2.26,2.26,0,0,0-3-.13,54.82,54.82,0,0,1-35,12.6h0a2.27,2.27,0,0,0-2.08,3.17l30.87,71.25a2.27,2.27,0,0,0,2.48,1.34,133.15,133.15,0,0,0,63.68-30.55A2.27,2.27,0,0,0,740.88,606.08Z" />
    <text class="cls-12" transform="translate(679.1 587.95) rotate(53.2)">112</text>
  </g>
  <g id="k106" data-name="106" data-id="k106">
    <path class="cls-11"
      d="M325.38,567.39a2.27,2.27,0,0,0-2.08-3.17h-.4a54.86,54.86,0,0,1-34.84-12.43,2.24,2.24,0,0,0-3,.14l-57,54.34a2.26,2.26,0,0,0,.07,3.34A133.22,133.22,0,0,0,292,640.05a2.27,2.27,0,0,0,2.47-1.34Z" />
    <text class="cls-12" transform="translate(278.24 602.65) rotate(-53.2)">106</text>
  </g>
  <g id="k206" data-name="206" data-id="k206">
    <path class="cls-11"
      d="M286.52,650.18A144.86,144.86,0,0,1,219.87,617a2.27,2.27,0,0,0-3.06,0l-55.58,53a2.26,2.26,0,0,0-.06,3.23,364.64,364.64,0,0,0,87.37,65.35,2.28,2.28,0,0,0,3.15-1.11l36.47-84.19A2.27,2.27,0,0,0,286.52,650.18Z" />
    <text class="cls-12" transform="translate(225.49 682.72) rotate(-53.2)">206</text>
  </g>
  <g id="k217" data-name="217" data-id="k217">
    <path class="cls-11"
      d="M755.15,225.13a145.41,145.41,0,0,1,38.87,68,2.26,2.26,0,0,0,2.74,1.65l82.78-21a2.28,2.28,0,0,0,1.52-3.12,363.74,363.74,0,0,0-67.43-101.39,2.27,2.27,0,0,0-3.22-.08l-55.25,52.67A2.27,2.27,0,0,0,755.15,225.13Z" />
    <text class="cls-12" transform="matrix(0.89, -0.46, 0.46, 0.89, 809.05, 248.11)">217</text>
  </g>
  <g id="k117" data-name="117" data-id="k117">
    <path class="cls-11"
      d="M702.76,318.68l79-20.05a2.27,2.27,0,0,0,1.65-2.73A133.63,133.63,0,0,0,748,233.51l-.9-.89a2.26,2.26,0,0,0-3.15,0L686.82,287a2.25,2.25,0,0,0-.13,3.14A54.94,54.94,0,0,1,700,316.92,2.25,2.25,0,0,0,702.76,318.68Z" />
    <text class="cls-12" transform="matrix(0.89, -0.46, 0.46, 0.89, 728.74, 289.41)">117</text>
  </g>
  <g id="k201" data-name="201" data-id="k201">
    <path class="cls-11"
      d="M89.25,273.7l82.77,21a2.27,2.27,0,0,0,2.75-1.66,145.3,145.3,0,0,1,39-68.13,2.25,2.25,0,0,0,0-3.25L158.54,169a2.29,2.29,0,0,0-3.22.08A364.34,364.34,0,0,0,87.73,270.59,2.27,2.27,0,0,0,89.25,273.7Z" />
    <text class="cls-12" transform="matrix(0.89, 0.46, -0.46, 0.89, 141.73, 239.66)">201</text>
  </g>
  <g id="k216" data-name="216" data-id="k216">
    <path class="cls-11"
      d="M908.19,363.75a360.6,360.6,0,0,0-24.09-86,2.26,2.26,0,0,0-2.65-1.32l-84.16,21.37a2.25,2.25,0,0,0-1.66,2.63,146.32,146.32,0,0,1,2.74,28.2v44.92a2.26,2.26,0,0,0,2.46,2.25l105.31-9.44A2.27,2.27,0,0,0,908.19,363.75Z" />
    <text class="cls-12" transform="translate(838.99 333.75) rotate(-7.34)">216</text>
  </g>
  <g id="k116" data-name="116" data-id="k116">
    <path class="cls-11"
      d="M701,327.14v55.12a2.26,2.26,0,0,0,2.46,2.26l81.9-7.34a2.28,2.28,0,0,0,2.06-2.26V328.61A135.56,135.56,0,0,0,785,303.36a2.27,2.27,0,0,0-2.79-1.76l-79.66,20.22a2.26,2.26,0,0,0-1.7,2.3C700.92,325.12,701,326.13,701,327.14Z" />
    <text class="cls-12" transform="translate(736.83 351.16) rotate(-7.34)">116</text>
  </g>
  <g id="k102" data-name="102" data-id="k102">
    <path class="cls-11"
      d="M265.34,384.48a2.26,2.26,0,0,0,2.47-2.25V327.14q0-1.58.09-3.12a2.24,2.24,0,0,0-1.7-2.3L186.55,301.5a2.26,2.26,0,0,0-2.78,1.76,135.79,135.79,0,0,0-2.38,25.35v46.28a2.26,2.26,0,0,0,2.06,2.25Z" />
    <text class="cls-12" transform="translate(213.46 348.78) rotate(7.34)">102</text>
  </g>
  <g id="k202" data-name="202" data-id="k202">
    <path class="cls-11"
      d="M167.92,375.75a2.27,2.27,0,0,0,2.47-2.26V328.61a145.6,145.6,0,0,1,2.76-28.29,2.26,2.26,0,0,0-1.66-2.64L87.35,276.32a2.28,2.28,0,0,0-2.66,1.31,360.9,360.9,0,0,0-24.11,86.08,2.27,2.27,0,0,0,2,2.6Z" />
    <text class="cls-12" transform="translate(107.67 331.37) rotate(7.34)">202</text>
  </g>
  <g id="k215" data-name="215" data-id="k215">
    <path class="cls-11"
      d="M800.44,456.58,907,465.42a2.27,2.27,0,0,0,2.44-2,366.09,366.09,0,0,0,2.81-45.3h0a366.19,366.19,0,0,0-3-46.87,2.26,2.26,0,0,0-2.45-2l-106.35,9.53a2.26,2.26,0,0,0-2.06,2.26v73.23A2.26,2.26,0,0,0,800.44,456.58Z" />
    <text class="cls-12" transform="translate(846.13 420)">215</text>
  </g>
  <g id="k115" data-name="115" data-id="k115">
    <path class="cls-11"
      d="M701,389.82v56.42a2.25,2.25,0,0,0,2.07,2.25l81.9,6.8a2.26,2.26,0,0,0,2.45-2.26V382.48a2.27,2.27,0,0,0-2.47-2.26L703,387.57A2.25,2.25,0,0,0,701,389.82Z" />
    <text class="cls-12" transform="translate(735.05 420.24)">115</text>
  </g>
  <g id="k203" data-name="203" data-id="k203">
    <path class="cls-11"
      d="M168.33,378.8,62,369.26a2.26,2.26,0,0,0-2.45,2,366.55,366.55,0,0,0-3,46.9h0a366.86,366.86,0,0,0,2.81,45.34,2.27,2.27,0,0,0,2.44,2l106.54-8.84a2.26,2.26,0,0,0,2.08-2.25V381.05A2.26,2.26,0,0,0,168.33,378.8Z" />
    <text class="cls-12" transform="translate(107.73 420)">203</text>
  </g>
  <g id="k214" data-name="214" data-id="k214">
    <path class="cls-11"
      d="M800.82,459.62a2.26,2.26,0,0,0-2.45,2.25v45.79a146,146,0,0,1-2.64,27.69,2.25,2.25,0,0,0,1.66,2.63l84.27,21.4a2.27,2.27,0,0,0,2.65-1.33A360.55,360.55,0,0,0,908.42,471a2.26,2.26,0,0,0-2.06-2.58Z" />
    <text class="cls-12" transform="translate(838.2 508.19) rotate(8.75)">214</text>
  </g>
  <g id="k114" data-name="114" data-id="k114">
    <path class="cls-11"
      d="M703.4,451.54a2.26,2.26,0,0,0-2.45,2.25v55.34c0,.84,0,1.67-.07,2.49a2.25,2.25,0,0,0,1.7,2.29l79.74,20.25a2.27,2.27,0,0,0,2.79-1.77,136.15,136.15,0,0,0,2.26-24.73V460.59a2.27,2.27,0,0,0-2.08-2.26Z" />
    <text class="cls-12" transform="translate(733.57 491.62) rotate(8.75)">114</text>
  </g>
  <g id="k204" data-name="204" data-id="k204">
    <path class="cls-11"
      d="M171.39,538.08a2.26,2.26,0,0,0,1.65-2.63,146.21,146.21,0,0,1-2.65-27.79V461.91a2.26,2.26,0,0,0-2.45-2.26L62.4,468.41A2.27,2.27,0,0,0,60.34,471a360.71,360.71,0,0,0,24.15,87.16,2.28,2.28,0,0,0,2.65,1.32Z" />
    <text class="cls-12" transform="translate(108.74 510.93) rotate(-8.75)">204</text>
  </g>
  <g id="k213" data-name="213" data-id="k213">
    <path class="cls-11"
      d="M879.76,562l-82.87-21a2.26,2.26,0,0,0-2.75,1.67,145.22,145.22,0,0,1-39.59,69.1,2.26,2.26,0,0,0,0,3.26l55.27,52.7a2.27,2.27,0,0,0,3.21-.08,363.71,363.71,0,0,0,68.24-102.5A2.28,2.28,0,0,0,879.76,562Z" />
    <text class="cls-12" transform="translate(803.07 594.88) rotate(26.66)">213</text>
  </g>
  <g id="k205" data-name="205" data-id="k205">
    <path class="cls-11"
      d="M214.4,611.91a145.21,145.21,0,0,1-39.76-69.2,2.26,2.26,0,0,0-2.75-1.66L89,562.08a2.27,2.27,0,0,0-1.52,3.11A363.87,363.87,0,0,0,155.91,667.8a2.27,2.27,0,0,0,3.21.08l55.28-52.7A2.27,2.27,0,0,0,214.4,611.91Z" />
    <text class="cls-12" transform="translate(147 603.14) rotate(-26.66)">205</text>
  </g>
  <g id="k113" data-name="113" data-id="k113">
    <path class="cls-11"
      d="M700.08,518.86a54.91,54.91,0,0,1-13.93,27.83,2.26,2.26,0,0,0,.1,3.17l57.07,54.41a2.28,2.28,0,0,0,3.15,0l1.51-1.49a133.6,133.6,0,0,0,35.53-62.9,2.27,2.27,0,0,0-1.65-2.73l-79-20A2.24,2.24,0,0,0,700.08,518.86Z" />
    <text class="cls-12" transform="translate(720.14 553.53) rotate(26.66)">113</text>
  </g>
  <g id="k103" data-name="103" data-id="k103">
    <path class="cls-11"
      d="M267.81,446.27V389.78a2.26,2.26,0,0,0-2.06-2.25l-81.9-7.34a2.26,2.26,0,0,0-2.46,2.25v70.63a2.26,2.26,0,0,0,2.45,2.25l81.89-6.79A2.27,2.27,0,0,0,267.81,446.27Z" />
    <text class="cls-12" transform="translate(215.54 420.24)">103</text>
  </g>
  <g id="k104" data-name="104" data-id="k104">
    <path class="cls-11"
      d="M267.81,509.13V453.82a2.26,2.26,0,0,0-2.45-2.25l-81.9,6.79a2.26,2.26,0,0,0-2.07,2.26v47a135.4,135.4,0,0,0,2.28,24.83,2.26,2.26,0,0,0,2.78,1.77L266.18,514a2.27,2.27,0,0,0,1.7-2.3C267.83,510.86,267.81,510,267.81,509.13Z" />
    <text class="cls-12" transform="translate(216.98 494.37) rotate(-8.75)">104</text>
  </g>
  <g id="k105" data-name="105" data-id="k105">
    <path class="cls-11"
      d="M265.92,517.18l-79,20.05a2.27,2.27,0,0,0-1.65,2.72,133.62,133.62,0,0,0,35.51,62.81c.57.58,1.16,1.15,1.74,1.71a2.27,2.27,0,0,0,3.12,0l57.06-54.4a2.25,2.25,0,0,0,.1-3.17A54.84,54.84,0,0,1,268.7,519,2.25,2.25,0,0,0,265.92,517.18Z" />
    <text class="cls-12" transform="translate(230.44 561.79) rotate(-26.66)">105</text>
  </g>
  <g id="k101" data-name="101" data-id="k101">
    <path class="cls-11"
      d="M268.78,316.83A54.88,54.88,0,0,1,282.25,290a2.26,2.26,0,0,0-.13-3.15L225,232.4a2.26,2.26,0,0,0-3.15,0c-.37.36-.74.72-1.1,1.09A133.67,133.67,0,0,0,185.4,295.8a2.26,2.26,0,0,0,1.65,2.73l79,20.05A2.25,2.25,0,0,0,268.78,316.83Z" />
    <text class="cls-12" transform="matrix(0.89, 0.46, -0.46, 0.89, 223.45, 280.95)">101</text>
  </g>
</svg>